if (_typeface_js && _typeface_js.loadFace) _typeface_js.loadFace({"glyphs":{"S":{"x_min":83,"x_max":645,"ha":728,"o":"m 364 604 q 562 517 480 604 q 645 309 645 431 l 645 15 q 562 -192 645 -106 q 364 -278 480 -278 q 165 -192 247 -278 q 83 15 83 -106 l 83 121 l 271 121 l 271 15 q 298 -59 271 -28 q 364 -90 325 -90 q 429 -59 402 -90 q 457 15 457 -28 l 457 309 q 429 384 457 353 q 363 416 402 416 q 165 502 247 416 q 83 710 83 588 l 83 816 q 165 1024 83 938 q 364 1110 247 1110 q 562 1024 480 1110 q 645 816 645 938 l 645 710 l 457 710 l 457 816 q 429 892 457 860 q 364 923 402 923 q 298 892 325 923 q 271 816 271 860 l 271 710 q 298 635 271 666 q 364 604 325 604 "},"/":{"x_min":83.34375,"x_max":713.953125,"ha":797,"o":"m 713 1085 l 280 -251 l 83 -251 l 516 1085 l 713 1085 "},"K":{"x_min":83,"x_max":645,"ha":728,"o":"m 645 897 l 645 228 q 557 16 645 103 l 645 -251 l 447 -251 l 387 -64 l 363 -64 l 271 -64 l 271 -251 l 83 -251 l 83 229 l 83 790 l 83 1085 l 271 1085 l 271 1030 l 271 122 l 364 122 q 429 153 402 122 q 457 228 457 185 l 457 897 l 645 897 "},"7":{"x_min":83.34375,"x_max":713.953125,"ha":797,"o":"m 456 897 l 83 897 l 83 1085 l 713 1085 l 280 -251 l 83 -251 l 456 897 "},",":{"x_min":82.9375,"x_max":364,"ha":447,"o":"m 364 -112 q 281 -320 364 -234 q 82 -407 199 -407 l 82 -313 q 146 -240 117 -313 q 176 -112 176 -166 l 176 -64 l 364 -64 l 364 -112 "},"Ô":{"x_min":83,"x_max":645,"ha":728,"o":"m 83 443 q 165 651 83 565 q 364 737 247 737 q 562 651 480 737 q 645 443 645 565 l 645 16 q 562 -191 645 -105 q 364 -277 480 -277 q 165 -191 247 -277 q 83 16 83 -105 l 83 443 m 271 443 l 271 16 q 298 -59 271 -27 q 364 -90 325 -90 q 429 -59 402 -90 q 457 16 457 -27 l 457 443 q 429 518 457 487 q 364 550 402 550 q 298 518 325 550 q 271 443 271 487 m 364 1072 l 645 955 l 645 783 l 364 898 l 83 783 l 83 955 l 364 1072 "},"Y":{"x_min":83.765625,"x_max":714.25,"ha":797,"o":"m 714 1085 l 497 417 l 492 401 l 492 -251 l 306 -251 l 306 401 l 300 417 l 83 1085 l 281 1085 l 399 719 l 517 1085 l 714 1085 "},"E":{"x_min":83,"x_max":551.578125,"ha":635,"o":"m 551 -64 l 551 -252 l 271 -252 l 83 -252 l 83 -64 l 83 897 l 83 1085 l 271 1085 l 458 1085 l 458 897 l 271 897 l 271 711 l 551 711 l 551 523 l 271 523 l 271 -64 l 551 -64 "},"\"":{"x_min":83,"x_max":631.0625,"ha":695,"o":"m 83 816 q 164 1024 83 938 q 363 1111 246 1111 l 363 1017 q 298 944 327 1017 q 269 816 269 870 l 269 768 l 83 768 l 83 816 m 350 816 q 432 1024 350 938 q 631 1111 514 1111 l 631 1017 q 567 944 596 1017 q 538 816 538 870 l 538 768 l 350 768 l 350 816 "},"Á":{"x_min":83,"x_max":645,"ha":728,"o":"m 551 937 l 176 783 l 176 955 l 551 1111 l 551 937 m 457 121 l 457 441 q 429 517 457 486 q 364 548 402 548 q 298 517 325 548 q 271 441 271 486 l 271 121 l 457 121 m 83 441 q 165 649 83 563 q 364 735 247 735 q 562 649 480 735 q 645 441 645 563 l 645 -253 l 457 -253 l 457 -65 l 271 -65 l 271 -253 l 83 -253 l 83 441 "},"Â":{"x_min":83,"x_max":645,"ha":728,"o":"m 83 443 q 165 651 83 565 q 364 737 247 737 q 562 651 480 737 q 645 443 645 565 l 645 -251 l 457 -251 l 457 -64 l 271 -64 l 271 -251 l 83 -251 l 83 443 m 457 122 l 457 442 q 429 518 457 487 q 364 549 402 549 q 298 518 325 549 q 271 442 271 487 l 271 122 l 457 122 m 364 1074 l 645 957 l 645 785 l 364 900 l 83 785 l 83 957 l 364 1074 "},"–":{"x_min":83.34375,"x_max":784.78125,"ha":876,"o":"m 784 711 l 784 523 l 83 523 l 83 711 l 784 711 "},"Î":{"x_min":83.71875,"x_max":644.875,"ha":728,"o":"m 364 1072 l 644 955 l 644 783 q 546 814 617 785 q 421 870 476 842 l 364 898 l 83 783 l 83 955 q 228 1012 90 953 q 364 1072 367 1072 m 271 -253 l 271 709 l 459 709 l 459 -253 l 271 -253 "},"Í":{"x_min":83,"x_max":456.640625,"ha":526,"o":"m 83 -253 l 83 709 l 269 709 l 269 -253 l 83 -253 m 456 937 l 83 783 l 83 955 l 456 1111 l 456 937 "},"Ã":{"x_min":83,"x_max":645,"ha":728,"o":"m 457 122 l 457 442 q 429 518 457 487 q 364 549 402 549 q 298 518 325 549 q 271 442 271 487 l 271 122 l 457 122 m 83 443 q 165 651 83 565 q 364 737 247 737 q 562 651 480 737 q 645 443 645 565 l 645 -251 l 457 -251 l 457 -64 l 271 -64 l 271 -251 l 83 -251 l 83 443 m 143 1111 q 304 1079 236 1116 q 370 1031 333 1062 q 434 976 408 1000 q 501 936 461 952 q 584 925 541 919 l 584 763 q 514 766 547 761 q 458 777 480 770 q 404 802 436 783 q 361 832 373 822 q 312 872 348 841 q 264 913 276 902 q 143 951 209 957 l 143 1111 "},"J":{"x_min":82.875,"x_max":457,"ha":526,"o":"m 176 -90 l 181 -90 q 176 -90 181 -90 m 457 1085 l 457 16 q 374 -191 457 -105 q 175 -278 292 -278 q 82 -261 127 -278 l 82 -90 l 175 -90 q 181 -90 178 -90 q 244 -56 219 -87 q 269 16 269 -26 l 269 1085 l 457 1085 "},"»":{"x_min":83.34375,"x_max":652.828125,"ha":722,"o":"m 255 136 l 83 136 l 198 416 l 83 697 l 255 697 l 372 416 l 255 136 m 536 136 l 362 136 l 479 416 l 363 697 l 536 697 l 652 416 l 536 136 "},"Ú":{"x_min":0,"x_max":562,"ha":645,"o":"m 468 937 l 93 783 l 93 955 l 468 1111 l 468 937 m 0 726 l 188 726 l 188 16 q 215 -59 188 -27 q 281 -90 242 -90 q 346 -59 319 -90 q 374 16 374 -27 l 374 726 l 562 726 l 562 16 q 479 -191 562 -105 q 281 -277 397 -277 q 82 -191 164 -277 q 0 16 0 -105 l 0 726 "},"|":{"x_min":83,"x_max":271,"ha":360,"o":"m 83 1085 l 271 1085 l 271 -251 l 83 -251 l 83 1085 "},"§":{"x_min":83.484375,"x_max":645.515625,"ha":728,"o":"m 297 492 q 270 416 270 461 q 297 341 270 372 q 363 309 325 309 q 429 341 402 309 q 456 416 456 372 q 429 492 456 461 q 363 523 402 523 q 297 492 325 523 m 83 816 q 165 1025 83 938 q 364 1111 247 1111 q 563 1025 481 1111 q 645 816 645 938 l 458 816 q 429 892 457 861 q 363 923 402 923 q 297 892 325 923 q 270 817 270 861 q 297 742 270 773 q 363 711 325 711 q 563 625 480 711 q 645 416 645 538 q 570 216 645 301 q 645 16 645 131 q 563 -191 645 -105 q 364 -277 481 -277 q 165 -191 247 -277 q 83 16 83 -105 l 271 16 q 299 -59 272 -27 q 365 -90 326 -90 q 431 -59 403 -90 q 458 15 458 -27 q 431 90 458 59 q 365 122 403 122 q 165 208 248 122 q 83 416 83 294 q 158 616 83 531 q 83 816 83 701 "},"«":{"x_min":83.34375,"x_max":652.828125,"ha":722,"o":"m 362 416 l 479 697 l 652 697 l 536 416 l 652 136 l 479 136 l 362 416 m 83 416 l 198 697 l 372 697 l 255 416 l 372 136 l 198 136 l 83 416 "},"D":{"x_min":83,"x_max":645,"ha":728,"o":"m 271 897 l 271 -64 l 364 -64 q 429 -32 402 -64 q 457 42 457 -1 l 457 790 q 429 865 457 834 q 364 897 402 897 l 271 897 m 373 1085 q 363 1085 368 1085 l 373 1085 m 372 1085 q 565 995 486 1080 q 645 790 645 909 l 645 42 q 562 -165 645 -79 q 364 -252 480 -252 l 358 -252 l 83 -252 l 83 1085 l 364 1085 l 372 1085 "},"$":{"x_min":0,"x_max":0,"ha":728},"\\":{"x_min":83.34375,"x_max":713.953125,"ha":797,"o":"m 280 1085 l 713 -251 l 516 -251 l 83 1085 l 280 1085 "},"Ì":{"x_min":-0.640625,"x_max":373,"ha":455,"o":"m 184 -253 l 184 709 l 372 709 l 372 -253 l 184 -253 m 0 1111 l 373 955 l 373 783 l 0 937 l 0 1111 "},"Ç":{"x_min":83,"x_max":644,"ha":727,"o":"m 216 -278 l 216 -90 q 291 -62 260 -90 q 322 3 322 -35 q 291 69 322 41 q 216 96 260 96 l 216 166 q 119 272 155 205 q 83 416 83 339 l 83 817 q 164 1025 83 939 q 363 1111 246 1111 q 562 1025 480 1111 q 644 817 644 939 l 644 711 l 456 711 l 456 817 q 429 892 456 861 q 363 923 402 923 q 297 892 324 923 q 271 817 271 861 l 271 416 q 297 341 271 372 q 363 310 324 310 q 429 341 402 310 q 456 416 456 372 l 456 523 l 644 523 l 644 416 q 595 252 644 326 q 469 144 547 178 q 510 3 510 79 q 424 -195 510 -113 q 216 -278 338 -278 "},"’":{"x_min":82.9375,"x_max":364,"ha":415,"o":"m 364 1062 q 281 854 364 940 q 82 768 199 768 l 82 861 q 146 934 117 861 q 176 1062 176 1008 l 176 1111 l 364 1111 l 364 1062 "},"É":{"x_min":83,"x_max":551.578125,"ha":635,"o":"m 551 -65 l 551 -253 l 83 -253 l 83 -65 l 83 710 l 458 710 l 458 522 l 271 522 l 271 335 l 551 335 l 551 149 l 271 149 l 271 -65 l 551 -65 m 503 937 l 130 783 l 130 955 l 503 1111 l 503 937 "},"-":{"x_min":83.34375,"x_max":644.5,"ha":726,"o":"m 644 711 l 644 523 l 83 523 l 83 711 l 644 711 m 363 616 l 363 616 "},"Q":{"x_min":83,"x_max":786.625,"ha":871,"o":"m 638 -40 q 708 -98 674 -77 q 786 -118 742 -118 l 786 -278 q 660 -255 711 -278 q 563 -190 608 -233 q 363 -278 481 -278 q 164 -191 246 -278 q 83 16 83 -105 l 83 816 q 164 1024 83 938 q 363 1111 246 1111 q 562 1024 480 1111 q 644 816 644 938 l 644 16 q 638 -40 644 -12 m 354 123 l 363 123 q 456 110 414 123 l 456 817 q 429 892 456 861 q 363 923 402 923 q 297 892 324 923 q 271 817 271 861 l 271 16 q 297 -58 271 -27 q 363 -90 324 -90 q 431 -56 404 -90 q 363 -35 402 -35 q 354 -35 359 -35 l 354 123 "},"M":{"x_min":83,"x_max":831,"ha":900,"o":"m 831 -251 l 643 -251 l 643 536 l 457 277 l 269 536 l 269 -251 l 83 -251 l 83 1111 l 457 595 l 831 1111 l 831 -251 "},"C":{"x_min":83,"x_max":645,"ha":728,"o":"m 83 816 q 165 1025 83 938 q 364 1111 247 1111 q 562 1025 480 1111 q 645 816 645 938 l 645 711 l 457 711 l 457 816 q 429 892 457 861 q 364 923 402 923 q 298 892 325 923 q 271 816 271 861 l 271 16 q 298 -59 271 -27 q 364 -90 325 -90 q 429 -59 402 -90 q 457 16 457 -27 l 457 122 l 645 122 l 645 16 q 562 -191 645 -105 q 364 -277 480 -277 q 165 -191 247 -277 q 83 16 83 -105 l 83 816 "},"[":{"x_min":83,"x_max":411,"ha":494,"o":"m 411 1085 l 411 897 l 271 897 l 271 -64 l 411 -64 l 411 -252 l 83 -252 l 83 1085 l 411 1085 "},"L":{"x_min":83,"x_max":551.578125,"ha":597,"o":"m 83 1085 l 271 1085 l 271 -64 l 551 -64 l 551 -252 l 83 -252 l 83 1085 "},"!":{"x_min":83,"x_max":271.515625,"ha":354,"o":"m 111 -223 q 83 -157 83 -195 q 111 -91 83 -119 q 177 -63 138 -63 q 243 -91 216 -63 q 270 -157 270 -119 q 243 -223 270 -195 q 177 -251 216 -251 q 111 -223 138 -251 m 271 1084 l 271 121 l 84 121 l 83 1084 l 271 1084 "},"È":{"x_min":83,"x_max":551.578125,"ha":635,"o":"m 551 -65 l 551 -253 l 83 -253 l 83 -65 l 83 710 l 458 710 l 458 522 l 271 522 l 271 335 l 551 335 l 551 149 l 271 149 l 271 -65 l 551 -65 m 83 1111 q 271 1033 84 1111 q 458 955 458 956 l 458 783 l 83 937 l 83 1111 "}," ":{"x_min":0,"x_max":0,"ha":346},"X":{"x_min":83.34375,"x_max":713.953125,"ha":797,"o":"m 713 1085 l 497 417 l 713 -251 l 516 -251 l 398 114 l 280 -251 l 83 -251 l 300 417 l 83 1085 l 280 1085 l 398 719 l 516 1085 l 713 1085 "},"P":{"x_min":83,"x_max":645,"ha":728,"o":"m 271 897 l 271 122 l 364 122 q 429 153 402 122 q 457 228 457 185 l 457 790 q 429 865 457 834 q 364 897 402 897 l 271 897 m 373 1085 q 565 995 486 1080 q 645 790 645 909 l 645 229 q 562 22 645 108 q 364 -64 480 -64 l 271 -64 l 271 -251 l 83 -251 l 83 229 l 83 790 l 83 1085 l 364 1085 l 373 1085 "},"%":{"x_min":97.234375,"x_max":1205.65625,"ha":1320,"o":"m 966 1084 l 533 -251 l 336 -251 l 770 1084 l 966 1084 m 258 947 q 237 890 237 923 q 258 834 237 857 q 307 811 279 811 q 356 834 336 811 q 377 890 377 857 q 356 947 377 923 q 307 970 336 970 q 258 947 279 970 m 158 734 q 97 891 97 800 q 159 1046 97 982 q 307 1111 220 1111 q 456 1046 394 1111 q 518 891 518 982 q 456 735 518 800 q 307 670 394 670 q 158 734 220 670 m 945 -1 q 925 -58 925 -25 q 945 -114 925 -91 q 995 -137 966 -137 q 1044 -114 1023 -137 q 1065 -58 1065 -91 q 1044 -1 1065 -25 q 995 22 1023 22 q 945 -1 966 22 m 845 -213 q 784 -57 784 -148 q 846 97 784 33 q 995 162 908 162 q 1143 97 1082 162 q 1205 -57 1205 33 q 1143 -213 1205 -148 q 995 -277 1082 -277 q 845 -213 908 -277 "},"#":{"x_min":82.9375,"x_max":831.0625,"ha":901,"o":"m 550 29 l 550 217 l 362 217 l 362 29 l 550 29 m 550 497 l 738 497 l 738 403 l 831 403 l 831 217 l 738 217 l 738 29 l 831 29 l 831 -157 l 738 -157 l 738 -251 l 550 -251 l 550 -157 l 362 -157 l 362 -251 l 176 -251 l 176 -157 l 82 -157 l 82 29 l 176 29 l 176 217 l 82 217 l 82 403 l 176 403 l 176 497 l 362 497 l 362 403 l 550 403 l 550 497 "},"À":{"x_min":83,"x_max":645,"ha":728,"o":"m 176 937 l 176 1111 l 551 955 l 551 783 l 176 937 m 457 121 l 457 441 q 429 517 457 486 q 364 548 402 548 q 298 517 325 548 q 271 441 271 486 l 271 121 l 457 121 m 83 441 q 165 649 83 563 q 364 735 247 735 q 562 649 480 735 q 645 441 645 563 l 645 -253 l 457 -253 l 457 -65 l 271 -65 l 271 -253 l 83 -253 l 83 441 "},"_":{"x_min":83.34375,"x_max":830.625,"ha":900,"o":"m 830 -64 l 830 -252 l 83 -252 l 83 -64 l 830 -64 m 456 -156 l 456 -156 "},"+":{"x_min":82.8125,"x_max":830.578125,"ha":900,"o":"m 830 710 l 830 524 l 550 524 l 550 229 l 362 229 l 362 524 l 82 524 l 82 710 l 362 710 l 362 1004 l 550 1004 l 550 710 l 830 710 "},"Ê":{"x_min":83.34375,"x_max":644.5,"ha":728,"o":"m 363 1072 l 644 955 l 644 783 l 363 898 l 83 783 l 83 955 l 363 1072 m 600 -65 l 600 -253 l 132 -253 l 132 -65 l 132 710 l 506 710 l 506 522 l 320 522 l 320 335 l 600 335 l 600 149 l 320 149 l 320 -65 l 600 -65 "},"Æ":{"x_min":83,"x_max":925.578125,"ha":1008,"o":"m 457 122 l 457 433 l 457 816 q 429 892 457 860 q 364 923 402 923 q 298 892 325 923 q 271 816 271 860 l 271 433 l 271 122 l 457 122 m 83 816 q 165 1025 83 939 q 364 1111 247 1111 q 480 1085 425 1111 l 645 1085 l 832 1085 l 832 897 l 645 897 l 645 816 l 645 711 l 925 711 l 925 523 l 645 523 l 645 -64 l 925 -64 l 925 -252 l 645 -252 l 457 -252 l 457 -64 l 271 -64 l 271 -252 l 83 -252 l 83 816 "},")":{"x_min":82.9375,"x_max":364,"ha":447,"o":"m 364 16 q 281 -191 364 -105 q 82 -278 199 -278 l 82 -90 q 148 -59 121 -90 q 176 16 176 -27 l 176 816 q 148 892 176 860 q 82 923 121 923 l 82 1111 q 281 1024 199 1111 q 364 816 364 938 l 364 16 "},"'":{"x_min":83,"x_max":364.0625,"ha":447,"o":"m 83 816 q 165 1024 83 938 q 364 1111 247 1111 l 364 1017 q 300 944 329 1017 q 271 816 271 870 l 271 768 l 83 768 l 83 816 "},"ª":{"x_min":83,"x_max":645,"ha":728,"o":"m 457 498 l 457 817 q 429 893 457 861 q 364 924 402 924 q 298 893 325 924 q 271 817 271 861 l 271 498 l 457 498 m 83 816 q 165 1025 83 939 q 364 1111 247 1111 q 562 1025 480 1111 q 645 816 645 939 l 645 122 l 457 122 l 457 310 l 271 310 l 271 122 l 83 122 l 83 816 m 363 -251 q 270 -157 270 -251 q 363 -63 270 -63 q 456 -157 456 -63 q 363 -251 456 -251 "},"T":{"x_min":82.71875,"x_max":551.296875,"ha":635,"o":"m 551 1085 l 551 897 l 411 897 l 411 -251 l 223 -251 l 223 897 l 82 897 l 82 1085 l 551 1085 "},"—":{"x_min":83.34375,"x_max":925.078125,"ha":1020,"o":"m 925 711 l 925 523 l 83 523 l 83 711 l 925 711 "},"=":{"x_min":83.34375,"x_max":830.625,"ha":900,"o":"m 830 698 l 830 510 l 83 510 l 83 698 l 830 698 m 830 324 l 830 136 l 83 136 l 83 324 l 830 324 "},"N":{"x_min":83,"x_max":645,"ha":728,"o":"m 83 1111 l 457 595 l 457 1084 l 645 1084 l 645 -251 l 457 -251 l 457 277 l 271 536 l 271 -251 l 83 -251 l 83 1111 "},"2":{"x_min":83,"x_max":645,"ha":728,"o":"m 363 604 q 429 635 402 604 q 457 710 457 666 l 457 816 q 429 892 457 860 q 364 923 402 923 q 298 892 325 923 q 271 816 271 860 l 83 816 q 165 1024 83 938 q 364 1110 247 1110 q 562 1024 480 1110 q 645 816 645 938 l 645 710 q 562 502 645 588 q 364 416 480 416 q 298 384 325 416 q 271 309 271 353 l 271 -64 l 645 -64 l 645 -252 l 83 -252 l 83 309 q 165 517 83 431 q 363 604 247 604 "},"Z":{"x_min":83.34375,"x_max":776.453125,"ha":860,"o":"m 456 897 l 177 897 l 177 1085 l 713 1085 l 341 -64 l 776 -64 l 776 -252 l 83 -252 l 456 897 "},"1":{"x_min":83,"x_max":364,"ha":447,"o":"m 176 807 q 83 790 131 790 l 83 978 q 148 1009 121 978 q 176 1085 176 1040 l 364 1085 l 364 -251 l 176 -251 l 176 807 "},"Ó":{"x_min":83,"x_max":645,"ha":728,"o":"m 83 443 q 165 651 83 565 q 364 737 247 737 q 562 651 480 737 q 645 443 645 565 l 645 16 q 562 -191 645 -105 q 364 -277 480 -277 q 165 -191 247 -277 q 83 16 83 -105 l 83 443 m 271 443 l 271 16 q 298 -59 271 -27 q 364 -90 325 -90 q 429 -59 402 -90 q 457 16 457 -27 l 457 443 q 429 518 457 487 q 364 550 402 550 q 298 518 325 550 q 271 443 271 487 m 551 937 l 176 783 l 176 955 l 551 1111 l 551 937 "},"Ù":{"x_min":0,"x_max":562,"ha":645,"o":"m 93 1111 l 468 955 l 468 783 l 93 937 l 93 1111 m 0 726 l 188 726 l 188 16 q 215 -59 188 -27 q 281 -90 242 -90 q 346 -59 319 -90 q 374 16 374 -27 l 374 726 l 562 726 l 562 16 q 479 -191 562 -105 q 281 -277 397 -277 q 82 -191 164 -277 q 0 16 0 -105 l 0 726 "},"€":{"x_min":-0.453125,"x_max":655,"ha":729,"o":"m 0 629 l 94 629 l 94 819 q 115 932 94 879 q 174 1025 137 985 q 262 1088 212 1065 q 369 1111 312 1111 q 481 1088 429 1111 q 572 1025 533 1065 q 633 932 611 985 q 655 819 655 878 l 463 819 q 436 892 463 862 q 369 922 409 922 q 308 892 333 922 q 283 819 283 862 l 283 629 l 558 629 l 558 440 l 283 440 l 283 395 l 558 395 l 558 203 l 283 203 l 283 14 q 289 -27 283 -6 q 308 -64 296 -48 q 335 -90 319 -80 q 369 -100 351 -100 q 407 -90 390 -100 q 436 -64 423 -80 q 456 -27 449 -48 q 463 14 463 -6 l 655 14 q 633 -99 655 -45 q 572 -192 611 -152 q 481 -255 533 -231 q 369 -279 429 -279 q 262 -255 312 -279 q 174 -192 212 -231 q 115 -99 137 -152 q 94 14 94 -45 l 94 203 l 0 203 l 0 395 l 94 395 l 94 440 l 0 440 l 0 629 "},"<":{"x_min":83.34375,"x_max":638.9375,"ha":722,"o":"m 638 -83 l 83 417 l 638 917 l 638 665 l 362 417 l 638 168 l 638 -83 "},"W":{"x_min":83.34375,"x_max":909.796875,"ha":979,"o":"m 272 1085 l 391 331 l 388 319 l 393 319 l 495 522 l 600 319 l 720 1085 l 909 1085 l 743 36 l 694 -278 l 550 5 l 495 109 l 443 5 l 298 -278 l 248 36 l 83 1085 l 272 1085 "},">":{"x_min":83.34375,"x_max":638.9375,"ha":708,"o":"m 83 168 l 359 417 l 83 665 l 83 917 l 638 417 l 83 -83 l 83 168 "},"B":{"x_min":83,"x_max":645,"ha":728,"o":"m 271 897 l 271 711 l 364 711 q 377 711 370 711 q 434 742 411 716 q 457 804 457 769 q 429 869 457 842 q 364 897 402 897 l 271 897 m 271 523 l 271 -64 l 364 -64 q 429 -32 402 -64 q 457 42 457 -1 l 457 416 q 429 491 457 460 q 364 523 402 523 l 271 523 m 83 1085 l 364 1085 l 372 1085 q 380 1084 376 1085 q 567 997 490 1078 q 645 804 645 915 q 571 615 645 694 q 645 416 645 530 l 645 42 q 562 -165 645 -79 q 364 -252 480 -252 l 358 -252 l 83 -252 l 83 1085 "},"…":{"x_min":83.34375,"x_max":979.25,"ha":1063,"o":"m 176 -251 q 83 -157 83 -251 q 177 -63 83 -63 q 270 -157 270 -63 q 176 -251 270 -251 m 530 -251 q 437 -157 437 -251 q 531 -63 437 -63 q 625 -157 625 -63 q 530 -251 625 -251 m 884 -251 q 791 -157 791 -251 q 885 -63 791 -63 q 979 -157 979 -63 q 884 -251 979 -251 "},"Ò":{"x_min":83,"x_max":645,"ha":728,"o":"m 83 443 q 165 651 83 565 q 364 737 247 737 q 562 651 480 737 q 645 443 645 565 l 645 16 q 562 -191 645 -105 q 364 -277 480 -277 q 165 -191 247 -277 q 83 16 83 -105 l 83 443 m 271 443 l 271 16 q 298 -59 271 -27 q 364 -90 325 -90 q 429 -59 402 -90 q 457 16 457 -27 l 457 443 q 429 518 457 487 q 364 550 402 550 q 298 518 325 550 q 271 443 271 487 m 176 1111 l 551 955 l 551 783 l 176 937 l 176 1111 "},"?":{"x_min":83,"x_max":645,"ha":728,"o":"m 400 611 q 441 650 425 623 q 457 711 457 677 l 457 816 q 429 892 457 861 q 364 923 402 923 q 298 892 325 923 q 271 816 271 861 l 271 711 l 83 711 l 83 816 q 165 1025 83 938 q 364 1111 247 1111 q 562 1025 480 1111 q 645 816 645 938 l 645 711 q 595 543 645 618 q 464 436 545 468 l 463 434 q 420 396 436 423 q 405 336 405 369 l 405 120 l 217 120 l 217 336 q 267 504 217 429 q 400 611 318 580 m 244 -223 q 216 -157 216 -195 q 244 -91 216 -119 q 310 -63 272 -63 q 376 -91 348 -63 q 404 -157 404 -119 q 376 -223 404 -195 q 310 -251 348 -251 q 244 -223 272 -251 "},"H":{"x_min":83,"x_max":645,"ha":728,"o":"m 457 1085 l 645 1085 l 645 -251 l 457 -251 l 457 523 l 271 523 l 271 -251 l 83 -251 l 83 1085 l 271 1085 l 271 711 l 457 711 l 457 1085 "},"&":{"x_min":83,"x_max":738,"ha":807,"o":"m 269 416 l 269 16 q 296 -59 269 -27 q 363 -90 324 -90 q 429 -59 402 -90 q 457 16 457 -27 l 457 323 l 457 416 q 429 492 457 461 q 363 523 402 523 q 296 492 324 523 q 269 416 269 461 m 297 892 q 269 817 269 861 q 297 742 269 773 q 363 711 325 711 q 429 742 402 711 q 456 817 456 773 q 429 892 456 861 q 363 923 402 923 q 297 892 325 923 m 83 817 q 165 1025 83 939 q 363 1112 247 1112 q 562 1025 479 1112 q 645 817 645 939 q 568 617 645 702 q 599 578 585 599 q 738 617 663 617 l 738 431 q 672 400 699 431 q 645 324 645 368 l 645 17 q 672 -58 645 -26 q 738 -89 699 -89 l 738 -277 q 550 -203 630 -278 q 363 -278 471 -278 q 165 -191 247 -278 q 83 17 83 -104 l 83 417 q 158 617 83 532 q 83 817 83 702 "},"I":{"x_min":83,"x_max":271,"ha":354,"o":"m 83 1085 l 271 1085 l 271 -251 l 83 -251 l 83 1085 m 177 416 l 177 416 "},"G":{"x_min":83,"x_max":735,"ha":818,"o":"m 362 337 l 372 337 q 477 318 430 337 q 555 270 523 300 q 614 209 587 240 q 671 150 640 179 q 735 108 703 120 l 735 -59 q 642 -29 683 -51 q 547 -206 626 -134 q 363 -277 468 -277 q 165 -191 247 -277 q 83 16 83 -105 l 83 816 q 165 1025 83 938 q 364 1111 247 1111 q 562 1025 480 1111 q 645 816 645 938 l 645 711 l 457 711 l 457 816 q 429 892 457 861 q 364 923 402 923 q 298 892 325 923 q 271 816 271 861 l 271 16 q 298 -59 271 -27 q 364 -90 325 -90 q 429 -59 402 -90 q 457 16 457 -27 l 457 144 q 372 177 419 177 q 362 177 368 177 l 362 337 "},"(":{"x_min":83,"x_max":364.0625,"ha":447,"o":"m 83 816 q 165 1024 83 938 q 364 1111 247 1111 l 364 923 q 298 892 325 923 q 271 816 271 860 l 271 16 q 298 -59 271 -27 q 364 -90 325 -90 l 364 -278 q 165 -191 247 -278 q 83 16 83 -105 l 83 816 "},"U":{"x_min":83,"x_max":645,"ha":728,"o":"m 83 1085 l 271 1085 l 271 16 q 298 -58 271 -27 q 364 -90 325 -90 q 429 -58 402 -90 q 457 16 457 -27 l 457 1085 l 645 1085 l 645 16 q 562 -191 645 -105 q 364 -277 480 -277 q 165 -191 247 -277 q 83 16 83 -105 l 83 1085 "},"F":{"x_min":83,"x_max":551.578125,"ha":635,"o":"m 551 711 l 551 523 l 271 523 l 271 -251 l 83 -251 l 83 1085 l 271 1085 l 458 1085 l 458 897 l 271 897 l 271 711 l 551 711 "},":":{"x_min":83.34375,"x_max":270.859375,"ha":354,"o":"m 176 -251 q 83 -157 83 -251 q 177 -63 83 -63 q 270 -157 270 -63 q 176 -251 270 -251 m 176 229 q 83 322 83 229 q 177 416 83 416 q 270 322 270 416 q 176 229 270 229 "},"Û":{"x_min":0,"x_max":562,"ha":645,"o":"m 281 1072 l 562 955 l 562 783 l 281 898 l 0 783 l 0 955 l 281 1072 m 0 726 l 188 726 l 188 16 q 215 -59 188 -27 q 281 -90 242 -90 q 346 -59 319 -90 q 374 16 374 -27 l 374 726 l 562 726 l 562 16 q 479 -191 562 -105 q 281 -277 397 -277 q 82 -191 164 -277 q 0 16 0 -105 l 0 726 "},"*":{"x_min":82.8125,"x_max":830.578125,"ha":900,"o":"m 830 217 l 830 29 l 715 29 q 737 -84 737 -25 l 737 -138 l 550 -138 l 550 -251 l 362 -251 l 362 -138 l 175 -138 l 175 -84 q 198 29 175 -25 l 82 29 l 82 217 l 192 216 q 175 314 175 263 l 175 369 l 362 369 l 362 497 l 550 497 l 550 369 l 737 369 l 737 314 q 720 216 737 263 l 830 217 "},"º":{"x_min":83,"x_max":645,"ha":728,"o":"m 271 816 l 271 390 q 298 314 271 345 q 364 283 325 283 q 429 314 402 283 q 457 390 457 345 l 457 816 q 429 892 457 861 q 364 923 402 923 q 298 892 325 923 q 271 816 271 861 m 83 816 q 165 1025 83 938 q 364 1111 247 1111 q 562 1025 480 1111 q 645 816 645 938 l 645 390 q 562 181 645 268 q 364 95 480 95 q 165 181 247 95 q 83 390 83 268 l 83 816 m 363 -251 q 270 -157 270 -251 q 363 -63 270 -63 q 456 -157 456 -63 q 363 -251 456 -251 m 363 -156 l 363 -156 "},"°":{"x_min":83.34375,"x_max":504.203125,"ha":588,"o":"m 244 947 q 223 890 223 923 q 244 834 223 857 q 293 811 265 811 q 343 834 322 811 q 363 890 363 857 q 343 947 363 923 q 293 970 322 970 q 244 947 265 970 m 145 735 q 83 891 83 800 q 145 1046 83 982 q 293 1111 206 1111 q 442 1046 380 1111 q 504 891 504 982 q 442 735 504 800 q 293 670 380 670 q 145 735 206 670 "},"V":{"x_min":83.34375,"x_max":813.953125,"ha":897,"o":"m 813 1085 l 448 -278 l 83 1085 l 277 1085 l 448 444 l 620 1085 l 813 1085 "},"÷":{"x_min":83.34375,"x_max":830.625,"ha":900,"o":"m 390 283 q 362 350 362 311 q 390 416 362 388 q 456 444 418 444 q 522 416 495 444 q 550 350 550 388 q 522 284 550 311 q 456 256 495 256 q 390 283 418 256 m 830 711 l 830 523 l 83 523 l 83 711 l 830 711 m 390 819 q 362 886 362 847 q 390 952 362 925 q 456 979 418 979 q 522 952 495 979 q 550 886 550 925 q 522 819 550 847 q 456 791 495 791 q 390 819 418 791 "},"0":{"x_min":83,"x_max":645,"ha":728,"o":"m 271 101 l 271 16 q 298 -59 271 -27 q 364 -90 325 -90 q 429 -59 402 -90 q 457 16 457 -27 l 457 388 l 271 101 m 271 816 l 271 444 l 457 732 l 457 816 q 429 892 457 861 q 364 923 402 923 q 298 892 325 923 q 271 816 271 861 m 83 816 q 165 1025 83 938 q 364 1111 247 1111 q 562 1025 480 1111 q 645 816 645 938 l 645 16 q 562 -191 645 -105 q 364 -277 480 -277 q 165 -191 247 -277 q 83 16 83 -105 l 83 816 "},".":{"x_min":83.34375,"x_max":270.859375,"ha":354,"o":"m 176 -251 q 83 -157 83 -251 q 177 -63 83 -63 q 270 -157 270 -63 q 176 -251 270 -251 "},"”":{"x_min":82.9375,"x_max":630,"ha":695,"o":"m 630 1062 q 548 854 630 940 q 349 768 466 768 l 349 861 q 414 934 385 861 q 444 1062 444 1008 l 444 1111 l 630 1111 l 630 1062 m 364 1062 q 281 854 364 940 q 82 768 199 768 l 82 861 q 146 934 117 861 q 176 1062 176 1008 l 176 1111 l 364 1111 l 364 1062 "},"@":{"x_min":83,"x_max":1206,"ha":1289,"o":"m 737 381 l 737 502 q 710 577 737 545 q 644 609 683 609 q 578 577 605 609 q 552 502 552 545 l 552 381 q 578 306 552 337 q 644 275 605 275 q 710 306 683 275 q 737 381 737 337 m 83 550 q 158 832 83 703 q 362 1036 233 961 q 644 1111 491 1111 q 658 1111 651 1111 q 934 1031 808 1107 q 1133 828 1060 955 q 1206 550 1206 700 l 1206 419 l 1206 322 q 1137 157 1206 226 q 972 89 1068 89 q 815 148 882 89 q 644 89 740 89 q 446 174 529 89 q 364 382 364 260 l 364 503 q 446 710 364 623 q 644 796 529 796 q 805 743 733 796 l 925 743 l 925 503 l 925 472 l 925 389 l 925 335 l 925 329 q 940 300 926 312 q 972 287 954 287 q 1003 300 990 287 q 1018 329 1016 312 l 1018 335 l 1018 472 l 1018 550 q 909 814 1018 705 q 645 923 800 923 q 380 814 490 923 q 271 550 271 705 l 271 283 q 379 20 271 129 q 641 -90 487 -88 l 644 -90 l 698 -90 l 1018 -90 l 1018 -278 l 698 -278 l 644 -278 q 362 -202 491 -278 q 158 1 233 -127 q 83 283 83 130 l 83 550 "},";":{"x_min":82.9375,"x_max":364,"ha":447,"o":"m 269 229 q 176 322 176 229 q 270 415 176 415 q 363 322 363 415 q 269 229 363 229 m 364 -112 q 281 -320 364 -234 q 82 -407 199 -407 l 82 -313 q 146 -240 117 -313 q 176 -112 176 -166 l 176 -64 l 364 -64 l 364 -112 "},"“":{"x_min":83,"x_max":631.0625,"ha":698,"o":"m 83 816 q 164 1024 83 938 q 363 1111 246 1111 l 363 1017 q 298 944 327 1017 q 269 816 269 870 l 269 768 l 83 768 l 83 816 m 350 816 q 432 1024 350 938 q 631 1111 514 1111 l 631 1017 q 567 944 596 1017 q 538 816 538 870 l 538 768 l 350 768 l 350 816 "},"6":{"x_min":83,"x_max":645,"ha":728,"o":"m 271 416 l 271 354 l 271 16 q 298 -59 271 -27 q 364 -90 325 -90 q 429 -59 402 -90 q 457 16 457 -27 l 457 416 q 429 492 457 461 q 364 523 402 523 q 298 492 325 523 q 271 416 271 461 m 271 694 q 364 710 315 710 q 562 624 480 710 q 645 416 645 538 l 645 16 q 562 -191 645 -105 q 364 -278 480 -278 q 165 -191 247 -278 q 83 16 83 -105 l 83 353 l 83 416 l 83 816 q 165 1024 83 938 q 364 1111 247 1111 l 364 923 q 298 892 325 923 q 271 816 271 860 l 271 694 "},"A":{"x_min":83,"x_max":645,"ha":727,"o":"m 457 122 l 457 433 l 457 816 q 429 892 457 860 q 364 923 402 923 q 298 892 325 923 q 271 816 271 860 l 271 433 l 271 122 l 457 122 m 83 817 q 165 1025 83 939 q 364 1111 247 1111 q 562 1025 480 1111 q 645 817 645 939 l 645 -251 l 457 -251 l 457 -64 l 271 -64 l 271 -251 l 83 -251 l 83 817 "},"‘":{"x_min":83,"x_max":363.453125,"ha":418,"o":"m 83 816 q 164 1024 83 938 q 363 1111 246 1111 l 363 1017 q 298 944 327 1017 q 269 816 269 870 l 269 768 l 83 768 l 83 816 "},"O":{"x_min":83,"x_max":645,"ha":728,"o":"m 83 816 q 165 1025 83 938 q 364 1111 247 1111 q 562 1025 480 1111 q 645 816 645 938 l 645 16 q 562 -191 645 -105 q 364 -277 480 -277 q 165 -191 247 -277 q 83 16 83 -105 l 83 816 m 364 416 l 364 416 m 271 816 l 271 16 q 298 -59 271 -27 q 364 -90 325 -90 q 429 -59 402 -90 q 457 16 457 -27 l 457 816 q 429 892 457 861 q 364 923 402 923 q 298 892 325 923 q 271 816 271 861 m 364 416 l 364 416 "},"Õ":{"x_min":83,"x_max":645,"ha":728,"o":"m 143 1111 q 304 1079 236 1116 q 370 1031 333 1062 q 434 976 408 1000 q 501 936 461 952 q 584 925 541 919 l 584 763 q 514 766 547 761 q 458 777 480 770 q 404 802 436 783 q 361 832 373 822 q 312 872 348 841 q 264 913 276 902 q 143 951 209 957 l 143 1111 m 271 444 l 271 18 q 298 -57 271 -26 q 364 -88 325 -88 q 429 -57 402 -88 q 457 18 457 -26 l 457 444 q 429 520 457 488 q 364 551 402 551 q 298 520 325 551 q 271 444 271 488 m 83 444 q 165 652 83 566 q 364 738 247 738 q 562 652 480 738 q 645 444 645 566 l 645 18 q 562 -190 645 -104 q 364 -276 480 -276 q 165 -190 247 -276 q 83 18 83 -104 l 83 444 "},"3":{"x_min":83.359375,"x_max":645,"ha":728,"o":"m 270 1085 l 363 1084 l 372 1085 q 380 1083 376 1085 q 567 996 490 1077 q 645 803 645 914 q 571 614 645 694 q 645 416 645 530 l 645 42 q 562 -165 645 -79 q 363 -252 480 -252 l 358 -252 l 83 -252 l 83 -64 l 270 -64 l 363 -64 q 429 -32 402 -64 q 457 42 457 -1 l 457 416 q 429 491 457 460 q 363 523 402 523 l 83 523 l 83 711 l 363 711 q 377 711 370 711 q 434 742 411 716 q 457 804 457 769 q 429 869 457 842 q 363 897 402 897 l 270 897 l 270 1085 "},"]":{"x_min":83,"x_max":411,"ha":494,"o":"m 411 1085 l 411 -252 l 83 -252 l 83 -64 l 223 -64 l 223 897 l 83 897 l 83 1085 l 411 1085 "},"9":{"x_min":83.359375,"x_max":645,"ha":728,"o":"m 457 816 q 433 888 457 857 q 373 923 409 918 q 363 923 369 923 q 297 891 325 923 q 270 816 270 860 q 297 741 270 772 q 363 710 325 710 q 429 741 402 710 q 457 816 457 772 m 373 1111 q 566 1021 487 1106 q 645 816 645 935 l 645 16 q 562 -191 645 -105 q 363 -278 480 -278 l 363 -90 q 429 -59 402 -90 q 457 16 457 -27 l 457 540 q 363 523 412 523 q 165 609 247 523 q 83 817 83 695 q 165 1024 83 938 q 363 1111 247 1111 q 373 1111 369 1111 "},"8":{"x_min":84,"x_max":645,"ha":728,"o":"m 297 892 q 270 817 270 861 q 297 742 270 773 q 363 711 325 711 q 429 742 402 711 q 456 817 456 773 q 429 892 456 861 q 363 923 402 923 q 297 892 325 923 m 272 416 l 272 16 q 298 -59 272 -27 q 364 -90 325 -90 q 430 -59 403 -90 q 457 16 457 -27 l 457 416 q 430 492 457 461 q 364 523 403 523 q 298 492 325 523 q 272 416 272 461 m 84 416 q 159 616 84 531 q 84 816 84 701 q 165 1025 84 938 q 364 1111 247 1111 q 563 1025 481 1111 q 645 816 645 938 q 569 616 645 701 q 645 416 645 531 l 645 16 q 563 -191 645 -105 q 364 -277 481 -277 q 165 -191 247 -277 q 84 16 84 -105 l 84 416 "},"4":{"x_min":83,"x_max":645,"ha":728,"o":"m 645 -251 l 457 -251 l 457 523 l 83 523 l 83 897 l 271 897 l 271 711 l 457 711 l 457 1085 l 645 1085 l 645 -251 "},"R":{"x_min":83,"x_max":645,"ha":728,"o":"m 271 897 l 271 122 l 364 122 q 429 153 402 122 q 457 228 457 185 l 457 790 q 429 865 457 834 q 364 897 402 897 l 271 897 m 373 1085 q 565 995 486 1080 q 645 790 645 910 l 645 229 q 557 17 645 104 l 645 -251 l 447 -251 l 387 -62 q 365 -64 376 -64 l 271 -64 l 271 -251 l 83 -251 l 83 790 l 83 1085 l 364 1085 l 373 1085 "},"×":{"x_min":83.34375,"x_max":763.953125,"ha":847,"o":"m 622 853 l 754 719 l 555 522 l 763 313 l 632 182 l 423 390 l 225 192 l 93 323 l 291 522 l 83 731 l 216 863 l 423 654 l 622 853 "},"5":{"x_min":83,"x_max":645,"ha":728,"o":"m 363 -252 l 244 -252 l 244 -64 l 363 -64 q 429 -32 402 -64 q 457 42 457 -1 l 457 416 q 429 491 457 460 q 363 523 402 523 l 83 523 l 83 1085 l 457 1085 l 457 897 l 271 897 l 271 711 l 386 711 q 570 616 496 701 q 645 416 645 531 l 645 42 q 562 -165 645 -79 q 363 -252 480 -252 "}}}
